Coordinates
version=1
nRows=26
nColumns=24
inDegrees=yes

Units are S.I. units (second, meters, Newtons, ...)
Angles are in degrees.

endheader
time	pelvis_tilt	pelvis_list	pelvis_rotation	pelvis_tx	pelvis_ty	pelvis_tz	hip_flexion_r	hip_adduction_r	hip_rotation_r	knee_angle_r	ankle_angle_r	subtalar_angle_r	mtp_angle_r	hip_flexion_l	hip_adduction_l	hip_rotation_l	knee_angle_l	ankle_angle_l	subtalar_angle_l	mtp_angle_l	lumbar_extension	lumbar_bending	lumbar_rotation
      4.35500000	     -4.36948972	      6.32587376	    359.48142096	      0.61873502	      1.36840079	     -1.00254226	      1.51443844	     -5.88047912	      4.41760376	    -37.46822373	      0.46264630	     -4.25271330	     21.69933153	     22.54192778	      8.81597827	     -2.58934050	     -9.16207863	    -11.79795481	     -5.44994440	     28.98652283	    -11.71760293	     -2.17137912	     -4.00150794
      4.36000000	     -4.33872685	      6.51506648	    359.52608582	      0.62412113	      1.36867654	     -1.00353354	      2.18234692	     -6.16951440	      4.37130606	    -39.02339759	     -0.61338406	     -4.02191001	     22.72568702	     22.51582954	      9.10441133	     -2.40825787	     -9.78532925	    -11.56275638	     -5.69710938	     28.37034148	    -11.70146355	     -2.41706432	     -3.93574358
      4.36500000	     -4.26099670	      6.71150253	    359.56753857	      0.62947698	      1.36899238	     -1.00451451	      2.80769309	     -6.46780271	      4.33684200	    -40.53946959	     -1.66705000	     -3.82910062	     23.78809796	     22.40862523	      9.40440169	     -2.27569608	    -10.35104278	    -11.30520528	     -5.86603009	     27.69414046	    -11.73654723	     -2.66864541	     -3.89497893
      4.37000000	     -4.15307730	      6.90455429	    359.63681046	      0.63483577	      1.36935189	     -1.00551850	      3.38909542	     -6.76486311	      4.28000821	    -41.99469798	     -2.67585926	     -3.69625073	     24.86284032	     22.23853244	      9.71435213	     -2.16638218	    -10.86704098	    -11.00783663	     -5.92190982	     26.98443977	    -11.78839138	     -2.90937581	     -3.94828994
      4.37500000	     -4.07726785	      7.06712347	    359.70272238	      0.64014625	      1.36968087	     -1.00654943	      4.01803007	     -7.02735327	      4.25531512	    -43.42266354	     -3.54720596	     -3.43679614	     25.72876591	     22.07490129	      9.99520349	     -2.04764963	    -11.32106841	    -10.73637678	     -6.01108021	     26.36350523	    -11.80239096	     -3.10537749	     -3.94240846
      4.38000000	     -4.00538305	      7.21001313	    359.75078594	      0.64541465	      1.37000863	     -1.00756377	      4.65852890	     -7.26099636	      4.27486782	    -44.80809027	     -4.25567954	     -3.12514211	     26.46695361	     21.88466449	     10.25041921	     -1.95267744	    -11.71231320	    -10.41949505	     -6.08059098	     25.80647194	    -11.81072601	     -3.27715061	     -3.89701997
      4.38500000	     -3.90321822	      7.34072575	    359.80800685	      0.65065079	      1.37038037	     -1.00858382	      5.25484803	     -7.47914258	      4.29028660	    -46.12347708	     -4.84149023	     -2.82890804	     27.18372527	     21.63041692	     10.49688935	     -1.89181960	    -12.04665481	    -10.10553514	     -6.07304961	     25.22631471	    -11.84391871	     -3.42816866	     -3.91040273
      4.39000000	     -3.78284578	      7.44355551	    359.86844877	      0.65582987	      1.37079159	     -1.00960525	      5.82302108	     -7.66136359	      4.31240476	    -47.37153638	     -5.27213668	     -2.52401072	     27.81033849	     21.33247685	     10.71514391	     -1.84893577	    -12.33247756	     -9.77961304	     -6.01069774	     24.68949117	    -11.90318202	     -3.54011954	     -3.94336334
      4.39500000	     -3.67837400	      7.52312205	    359.92956127	      0.66093767	      1.37119797	     -1.01062765	      6.40995931	     -7.81401726	      4.34003275	    -48.57028434	     -5.51999202	     -2.18485195	     28.31269193	     21.04235320	     10.90584227	     -1.84959193	    -12.59216951	     -9.48160720	     -5.94055507	     24.25089947	    -11.95059050	     -3.62134427	     -3.96430899
      4.40000000	     -3.59230547	      7.55945082	    359.98509050	      0.66602911	      1.37163469	     -1.01164016	      7.00539454	     -7.90355514	      4.40010215	    -49.68747776	     -5.68690011	     -1.93096775	     28.84135985	     20.73996533	     11.04871515	     -1.82014119	    -12.80287011	     -9.08841733	     -5.76567752	     23.65945149	    -11.96104927	     -3.64174751	     -4.05145659
      4.40500000	     -3.48146093	      7.58315892	    360.03175393	      0.67103958	      1.37210209	     -1.01263228	      7.57350366	     -7.97620516	      4.45880870	    -50.75123401	     -5.66199243	     -1.61517963	     29.22411070	     20.40387557	     11.17172550	     -1.83675022	    -12.98705311	     -8.75261931	     -5.61254867	     23.24976306	    -12.01115376	     -3.64945261	     -4.08908520
      4.41000000	     -3.37172677	      7.60015770	    360.05612710	      0.67599901	      1.37260649	     -1.01357244	      8.14506758	     -8.03053718	      4.54385686	    -51.75547422	     -5.50151268	     -1.28678679	     29.49795380	     20.05114068	     11.27387308	     -1.89364382	    -13.12183718	     -8.51712839	     -5.50270735	     23.02905458	    -12.06036891	     -3.65145973	     -4.16377433
      4.41500000	     -3.33706541	      7.55775167	    360.11210135	      0.68088834	      1.37305197	     -1.01457260	      8.79381411	     -8.01854803	      4.59723572	    -52.69988483	     -5.28714892	     -1.07021455	     29.82562537	     19.80804627	     11.32419924	     -1.91048289	    -13.33508886	     -8.06147222	     -5.20859830	     22.37792506	    -12.03181248	     -3.57099457	     -4.20522926
      4.42000000	     -3.23588575	      7.53395685	    360.11001811	      0.68575063	      1.37359732	     -1.01547468	      9.37294518	     -8.01487047	      4.70007269	    -53.57791648	     -4.93870216	     -0.76300579	     30.04082538	     19.45241211	     11.37057253	     -1.97874454	    -13.44155610	     -7.80331695	     -5.08312381	     22.20129008	    -12.07230388	     -3.51503856	     -4.26695625
      4.42500000	     -3.19970463	      7.48269803	    360.11883501	      0.69053717	      1.37409091	     -1.01637401	     10.02734015	     -7.97534689	      4.79477466	    -54.40759088	     -4.51528728	     -0.49481784	     30.23526313	     19.19088004	     11.38701052	     -2.03099762	    -13.59832133	     -7.45732799	     -4.86826346	     21.86090014	    -12.05101741	     -3.43143185	     -4.30969454
      4.43000000	     -3.15971298	      7.42338029	    360.11154127	      0.69528695	      1.37461097	     -1.01723322	     10.67609476	     -7.91824934	      4.89377134	    -55.17409529	     -4.04499618	     -0.30339638	     30.36384716	     18.92659838	     11.38692012	     -2.09845807	    -13.75843480	     -7.09467977	     -4.63668071	     21.45731312	    -12.03587772	     -3.33775752	     -4.35478812
      4.43500000	     -3.14411631	      7.35267895	    360.09678155	      0.69999185	      1.37512759	     -1.01806800	     11.35209074	     -7.84287629	      4.99130270	    -55.88278563	     -3.52785312	     -0.13801425	     30.43549854	     18.69583287	     11.36932185	     -2.16185026	    -13.93191990	     -6.70466734	     -4.37733563	     21.00573545	    -11.99784194	     -3.23117307	     -4.38362428
      4.44000000	     -3.11925095	      7.28414676	    360.06365997	      0.70467598	      1.37567728	     -1.01884438	     12.01444800	     -7.75972313	      5.09631648	    -56.52544056	     -2.98438976	     -0.03229663	     30.45311464	     18.45097121	     11.34567161	     -2.23207366	    -14.09639168	     -6.32599956	     -4.13281696	     20.54970914	    -11.96932227	     -3.13355801	     -4.40401088
      4.44500000	     -3.13086087	      7.20178922	    360.03201295	      0.70933636	      1.37619712	     -1.01960960	     12.71343951	     -7.65857402	      5.18914945	    -57.11130168	     -2.41557322	      0.05410647	     30.41333609	     18.25107808	     11.30535781	     -2.27998518	    -14.27481278	     -5.91151419	     -3.86031440	     20.05342256	    -11.89978432	     -3.02023023	     -4.41483646
      4.45000000	     -3.11844205	      7.13937574	    359.97290787	      0.71397839	      1.37676483	     -1.02030488	     13.38441457	     -7.56893538	      5.29667397	    -57.63189529	     -1.83281067	      0.10166183	     30.32970694	     18.01367515	     11.27551394	     -2.35290832	    -14.42602275	     -5.52555320	     -3.61248399	     19.54621702	    -11.86079721	     -2.93860197	     -4.40245856
      4.45500000	     -3.13113297	      7.05507866	    359.92362230	      0.71862728	      1.37732459	     -1.02099665	     14.06798223	     -7.45369884	      5.38205120	    -58.08034985	     -1.25850146	      0.10531729	     30.20272679	     17.79732479	     11.22494697	     -2.37856087	    -14.57412889	     -5.10990017	     -3.34419339	     19.03505630	    -11.78258627	     -2.83315242	     -4.40022758
      4.46000000	     -3.12798452	      6.97743457	    359.87706967	      0.72324090	      1.37791520	     -1.02165983	     14.72480959	     -7.34316765	      5.44848009	    -58.46344683	     -0.69022435	      0.04810991	     30.01059294	     17.56641977	     11.18047108	     -2.41211474	    -14.72824488	     -4.70453292	     -3.07719179	     18.45126503	    -11.73704731	     -2.73979405	     -4.41354088
      4.46500000	     -3.12652363	      6.91908847	    359.78370151	      0.72788429	      1.37850960	     -1.02224887	     15.38427858	     -7.24063981	      5.55911526	    -58.78241809	     -0.11912478	      0.05212030	     29.94172048	     17.30402611	     11.14163012	     -2.46599778	    -14.80348006	     -4.38659003	     -2.92846764	     18.14485931	    -11.68011504	     -2.67876914	     -4.30875908
      4.47000000	     -3.13113765	      6.85177115	    359.72078760	      0.73249696	      1.37910185	     -1.02283799	     16.03355742	     -7.13083005	      5.62631409	    -59.03858452	      0.44410874	      0.00358184	     29.71810168	     17.05642583	     11.09857841	     -2.50612228	    -14.90777719	     -3.99538265	     -2.66665056	     17.64033061	    -11.62517117	     -2.61337319	     -4.25720581
      4.47500000	     -3.11188295	      6.77685899	    359.66662206	      0.73711919	      1.37974557	     -1.02342346	     16.63419788	     -7.01449910	      5.66952108	    -59.21348255	      0.97659847	     -0.08851077	     29.49555126	     16.76156551	     11.05221961	     -2.52186219	    -14.97456226	     -3.64228680	     -2.44988268	     17.15333103	    -11.59222073	     -2.54240004	     -4.22636261
      4.48000000	     -3.06821678	      6.70741326	    359.61129073	      0.74178177	      1.38042876	     -1.02400343	     17.18690548	     -6.90696646	      5.70039163	    -59.30970700	      1.49163038	     -0.17108735	     29.29301366	     16.40814434	     11.01330219	     -2.51881039	    -14.98305713	     -3.31016611	     -2.25221001	     16.76021549	    -11.58211502	     -2.48124745	     -4.14214681
